<?xml version="1.0" encoding="utf-8"?>
<!-- Generator: Adobe Illustrator 18.0.0, SVG Export Plug-In . SVG Version: 6.00 Build 0)  -->
<!DOCTYPE svg PUBLIC "-//W3C//DTD SVG 1.1//EN" "http://www.w3.org/Graphics/SVG/1.1/DTD/svg11.dtd">
<svg version="1.1" id="Layer_1" xmlns="http://www.w3.org/2000/svg" xmlns:xlink="http://www.w3.org/1999/xlink" x="0px" y="0px"
	 viewBox="0 0 64 64" enable-background="new 0 0 64 64" xml:space="preserve">
<g>
	<g>
		<path fill="#E5E5E5" d="M32,0c17.7,0,32,14.3,32,32S49.7,64,32,64S0,49.7,0,32S14.3,0,32,0z"/>
	</g>
	<g>
		<g>
			<path fill="#FFFFFF" d="M26.1,13.7c-4.7,1.6-8.7,5.1-11,9.6c-0.8,1.5-1.3,3.2-1.7,4.9c-0.9,4.2-0.3,8.7,1.7,12.5
				c1.3,2.5,3.1,4.7,5.3,6.5c2.1,1.6,4.5,2.9,7,3.6c3.2,0.9,6.7,0.8,9.9,0.1c2.9-0.7,5.7-2.1,7.9-4.1c2.3-2.2,4-5,4.9-8
				c1-3.3,1.1-6.9,0.5-10.3c-6.1,0-12.2,0-18.2,0c0,2.5,0,5,0,7.6c3.5,0,7,0,10.6,0c-0.4,2.4-1.8,4.6-3.9,6
				c-1.3,0.9-2.8,1.4-4.3,1.7c-1.5,0.3-3.1,0.3-4.6,0c-1.6-0.3-3-1-4.3-1.9c-2.1-1.4-3.6-3.6-4.4-6c-0.8-2.4-0.8-5.1,0-7.5
				c0.6-1.7,1.5-3.3,2.8-4.6c1.6-1.6,3.6-2.8,5.8-3.2c1.9-0.4,3.9-0.3,5.7,0.2c1.6,0.5,3,1.3,4.2,2.5c1.2-1.2,2.4-2.4,3.6-3.6
				c0.6-0.6,1.3-1.3,1.9-1.9c-1.8-1.7-3.9-3-6.2-3.9C34.9,12.3,30.3,12.2,26.1,13.7z"/>
		</g>
		<g>
			<g>
				<path fill="#EA4335" d="M26.1,13.7c4.2-1.4,8.9-1.4,13.1,0.1c2.3,0.9,4.4,2.2,6.2,3.9c-0.6,0.7-1.3,1.3-1.9,1.9
					c-1.2,1.2-2.4,2.4-3.6,3.6c-1.2-1.1-2.6-2-4.2-2.5c-1.8-0.6-3.8-0.6-5.7-0.2c-2.2,0.5-4.2,1.6-5.8,3.2c-1.3,1.3-2.2,2.9-2.8,4.6
					c-2.1-1.6-4.2-3.3-6.4-4.9C17.3,18.8,21.3,15.3,26.1,13.7z"/>
			</g>
		</g>
		<g>
			<g>
				<path fill="#FBBC05" d="M13.4,28.2c0.3-1.7,0.9-3.3,1.7-4.9c2.1,1.6,4.2,3.3,6.4,4.9c-0.8,2.4-0.8,5.1,0,7.5
					c-2.1,1.6-4.2,3.3-6.3,4.9C13.1,36.9,12.5,32.4,13.4,28.2z"/>
			</g>
		</g>
		<g>
			<g>
				<path fill="#4285F4" d="M32.4,28.4c6.1,0,12.2,0,18.2,0c0.6,3.4,0.5,7-0.5,10.3c-0.9,3.1-2.6,5.9-4.9,8
					c-2.1-1.6-4.1-3.2-6.2-4.8c2-1.4,3.5-3.6,3.9-6c-3.5,0-7,0-10.6,0C32.4,33.4,32.4,30.9,32.4,28.4z"/>
			</g>
		</g>
		<g>
			<g>
				<path fill="#34A853" d="M15.1,40.7c2.1-1.6,4.2-3.3,6.3-4.9c0.8,2.4,2.4,4.5,4.4,6c1.3,0.9,2.8,1.6,4.3,1.9
					c1.5,0.3,3.1,0.3,4.6,0c1.5-0.3,3-0.8,4.3-1.7c2.1,1.6,4.1,3.2,6.2,4.8c-2.2,2.1-5,3.4-7.9,4.1c-3.3,0.7-6.7,0.8-9.9-0.1
					c-2.6-0.7-5-1.9-7-3.6C18.1,45.4,16.3,43.2,15.1,40.7z"/>
			</g>
		</g>
	</g>
</g>
</svg>
